<?xml version="1.0" standalone="no"?>
<!DOCTYPE svg PUBLIC "-//W3C//DTD SVG 1.0//EN" "http://www.w3.org/TR/2001/REC-SVG-20010904/DTD/svg10.dtd">
<svg xmlns="http://www.w3.org/2000/svg" xmlns:xlink="http://www.w3.org/1999/xlink" id="body_1" width="24" height="24">

<g transform="matrix(0.48 0 0 0.48 0 0)">
    <path d="M0 0L1024 0L1024 768L0 768z" stroke="none" fill="none" />
	<g>
		<g transform="matrix(0.1 0 -0 -0.1 0 50)">
            <path d="M166 480C 139 469 99 444 78 423C 38 384 0 300 0 250C 0 200 38 116 78 77C 119 37 201 0 250 0C 300 0 384 38 423 78C 463 119 500 201 500 250C 500 299 463 381 423 422C 383 463 299 500 247 500C 229 499 193 490 166 480zM225 367C 271 341 282 307 251 290C 233 281 230 282 230 298C 230 309 219 325 205 334C 182 349 177 349 150 335C 109 314 108 267 148 246C 174 232 179 234 249 272L249 272L323 312L364 289C 415 261 420 254 420 208C 420 167 398 140 349 120C 325 110 315 111 278 132C 245 150 235 161 235 180C 235 196 241 206 253 208C 263 210 270 205 270 196C 270 187 281 173 294 165C 316 150 321 150 349 165C 393 187 391 232 345 258C 328 267 312 262 251 228L251 228L177 188L136 211C 84 239 80 246 80 297C 80 336 83 341 123 364C 174 395 175 395 225 367z" stroke="none" fill="#8247E5" fill-rule="nonzero" />
		</g>
	</g>
</g>
</svg>