<?xml version="1.0" encoding="UTF-8"?>
<!DOCTYPE svg PUBLIC "-//W3C//DTD SVG 1.1//EN" "http://www.w3.org/Graphics/SVG/1.1/DTD/svg11.dtd">
<svg xmlns="http://www.w3.org/2000/svg" version="1.1" width="50px" height="50px" style="shape-rendering:geometricPrecision; text-rendering:geometricPrecision; image-rendering:optimizeQuality; fill-rule:evenodd; clip-rule:evenodd" xmlns:xlink="http://www.w3.org/1999/xlink">
<g><path style="opacity:0.992" fill="#da3938" d="M 16.5,-0.5 C 21.8333,-0.5 27.1667,-0.5 32.5,-0.5C 40.5,2.83333 46.1667,8.5 49.5,16.5C 49.5,21.8333 49.5,27.1667 49.5,32.5C 46.1667,40.5 40.5,46.1667 32.5,49.5C 27.1667,49.5 21.8333,49.5 16.5,49.5C 8.5,46.1667 2.83333,40.5 -0.5,32.5C -0.5,27.1667 -0.5,21.8333 -0.5,16.5C 2.83333,8.5 8.5,2.83333 16.5,-0.5 Z"/></g>
<g><path style="opacity:1" fill="#faefef" d="M 36.5,12.5 C 36.5,15.1667 36.5,17.8333 36.5,20.5C 37.552,20.3505 38.552,20.5172 39.5,21C 38.2625,21.2321 37.2625,21.7321 36.5,22.5C 36.5,23.8333 36.5,25.1667 36.5,26.5C 37.2625,27.2679 38.2625,27.7679 39.5,28C 38.2625,28.2321 37.2625,28.7321 36.5,29.5C 36.5,31.8333 36.5,34.1667 36.5,36.5C 35.5,36.5 34.5,36.5 33.5,36.5C 33.5,33.8333 33.5,31.1667 33.5,28.5C 28.4439,28.5455 26.1105,31.2122 26.5,36.5C 25.1667,36.5 23.8333,36.5 22.5,36.5C 22.8895,31.2122 20.5561,28.5455 15.5,28.5C 15.5,31.1667 15.5,33.8333 15.5,36.5C 14.5,36.5 13.5,36.5 12.5,36.5C 12.5,34.1667 12.5,31.8333 12.5,29.5C 11.7375,28.7321 10.7375,28.2321 9.5,28C 10.7375,27.7679 11.7375,27.2679 12.5,26.5C 12.5,25.1667 12.5,23.8333 12.5,22.5C 7.16667,21.8333 7.16667,21.1667 12.5,20.5C 12.5,17.8333 12.5,15.1667 12.5,12.5C 17.5561,12.5455 19.8895,15.2122 19.5,20.5C 22.8333,20.5 26.1667,20.5 29.5,20.5C 29.1105,15.2122 31.4439,12.5455 36.5,12.5 Z"/></g>
<g><path style="opacity:1" fill="#e69f9f" d="M 15.5,17.5 C 17.332,18.1405 17.6653,19.1405 16.5,20.5C 15.6143,19.675 15.281,18.675 15.5,17.5 Z"/></g>
<g><path style="opacity:1" fill="#e69f9f" d="M 32.5,17.5 C 33.7759,18.3864 33.7759,19.3864 32.5,20.5C 31.4376,19.5754 31.4376,18.5754 32.5,17.5 Z"/></g>
<g><path style="opacity:1" fill="#df6563" d="M 36.5,12.5 C 37.4682,14.6074 37.8016,16.9407 37.5,19.5C 38.5,19.5 39.5,19.5 40.5,19.5C 40.5,20.5 40.5,21.5 40.5,22.5C 39.1667,22.5 37.8333,22.5 36.5,22.5C 37.2625,21.7321 38.2625,21.2321 39.5,21C 38.552,20.5172 37.552,20.3505 36.5,20.5C 36.5,17.8333 36.5,15.1667 36.5,12.5 Z"/></g>
<g><path style="opacity:1" fill="#e4a7a9" d="M 27.5,24.5 C 27.0296,23.3065 26.0296,22.6399 24.5,22.5C 22.9704,22.6399 21.9704,23.3065 21.5,24.5C 20.596,23.791 20.2627,22.791 20.5,21.5C 23.1667,21.5 25.8333,21.5 28.5,21.5C 28.7373,22.791 28.404,23.791 27.5,24.5 Z"/></g>
<g><path style="opacity:1" fill="#dc4744" d="M 27.5,24.5 C 25.5,28.5 23.5,28.5 21.5,24.5C 21.9704,23.3065 22.9704,22.6399 24.5,22.5C 26.0296,22.6399 27.0296,23.3065 27.5,24.5 Z"/></g>
<g><path style="opacity:1" fill="#d94442" d="M 33.5,26.5 C 32.209,26.7373 31.209,26.404 30.5,25.5C 30.5,24.5 30.5,23.5 30.5,22.5C 31.5,22.5 32.5,22.5 33.5,22.5C 33.5,23.8333 33.5,25.1667 33.5,26.5 Z"/></g>
<g><path style="opacity:1" fill="#d94342" d="M 18.5,25.5 C 17.791,26.404 16.791,26.7373 15.5,26.5C 15.5,25.1667 15.5,23.8333 15.5,22.5C 16.5,22.5 17.5,22.5 18.5,22.5C 18.5,23.5 18.5,24.5 18.5,25.5 Z"/></g>
<g><path style="opacity:1" fill="#e59191" d="M 18.5,25.5 C 19.7514,26.472 19.418,27.1386 17.5,27.5C 16.5836,27.4573 15.9169,27.1239 15.5,26.5C 16.791,26.7373 17.791,26.404 18.5,25.5 Z"/></g>
<g><path style="opacity:1" fill="#e79191" d="M 30.5,25.5 C 31.209,26.404 32.209,26.7373 33.5,26.5C 32.2918,27.782 30.9584,27.782 29.5,26.5C 29.6236,25.8933 29.9569,25.56 30.5,25.5 Z"/></g>
<g><path style="opacity:1" fill="#dc7879" d="M 12.5,26.5 C 11.7375,27.2679 10.7375,27.7679 9.5,28C 10.7375,28.2321 11.7375,28.7321 12.5,29.5C 11.1667,29.5 9.83333,29.5 8.5,29.5C 8.5,28.5 8.5,27.5 8.5,26.5C 9.83333,26.5 11.1667,26.5 12.5,26.5 Z"/></g>
<g><path style="opacity:1" fill="#db7779" d="M 36.5,26.5 C 37.8333,26.5 39.1667,26.5 40.5,26.5C 40.5,27.5 40.5,28.5 40.5,29.5C 39.1667,29.5 37.8333,29.5 36.5,29.5C 37.2625,28.7321 38.2625,28.2321 39.5,28C 38.2625,27.7679 37.2625,27.2679 36.5,26.5 Z"/></g>
<g><path style="opacity:1" fill="#d95b5b" d="M 23.5,28.5 C 25.4646,28.9483 25.7979,29.9483 24.5,31.5C 23.6143,30.675 23.281,29.675 23.5,28.5 Z"/></g>
</svg>
