<svg xmlns="http://www.w3.org/2000/svg" version="1.0" width="50.000000" height="50.000000" preserveAspectRatio="xMidYMid meet"><rect id="backgroundrect" width="100%" height="100%" x="0" y="0" fill="none" stroke="none"/>


<g class="currentLayer" style=""><title>Layer 1</title><g transform="translate(0,50) scale(0.10000000149011612,-0.10000000149011612) " fill="#8247e5" stroke="none" id="svg_1" class="selected" fill-opacity="1">
<path d="M166 480 c-27 -11 -67 -36 -88 -57 -40 -39 -78 -123 -78 -173 0 -50 38 -134 78 -173 41 -40 123 -77 172 -77 50 0 134 38 173 78 40 41 77 123 77 172 0 49 -37 131 -77 172 -40 41 -124 78 -176 78 -18 -1 -54 -10 -81 -20z m59 -113 c46 -26 57 -60 26 -77 -18 -9 -21 -8 -21 8 0 11 -11 27 -25 36 -23 15 -28 15 -55 1 -41 -21 -42 -68 -2 -89 26 -14 31 -12 101 26 l74 40 41 -23 c51 -28 56 -35 56 -81 0 -41 -22 -68 -71 -88 -24 -10 -34 -9 -71 12 -33 18 -43 29 -43 48 0 16 6 26 18 28 10 2 17 -3 17 -12 0 -9 11 -23 24 -31 22 -15 27 -15 55 0 44 22 42 67 -4 93 -17 9 -33 4 -94 -30 l-74 -40 -41 23 c-52 28 -56 35 -56 86 0 39 3 44 43 67 51 31 52 31 102 3z" id="svg_2" fill="#8247e5" fill-opacity="1"/>
</g></g></svg>